<mxfile host="app.diagrams.net" modified="2023-12-01T03:51:18.586Z" agent="Mozilla/5.0 (Windows NT 10.0; Win64; x64) AppleWebKit/537.36 (KHTML, like Gecko) Chrome/109.0.0.0 Safari/537.36" etag="j0d7Q63x-JlGwgzXs6o1" version="22.1.5" type="github">
  <diagram name="第 1 页" id="Ftv0NHJM2Bnbhd5V44T6">
    <mxGraphModel dx="1050" dy="493" grid="1" gridSize="10" guides="1" tooltips="1" connect="1" arrows="1" fold="1" page="1" pageScale="1" pageWidth="827" pageHeight="1169" math="0" shadow="0">
      <root>
        <mxCell id="0" />
        <mxCell id="1" parent="0" />
        <mxCell id="QVQZq-N4ggE52IEKjC-J-1" value="api&lt;br&gt;SmsValidateRegisterController" style="shape=umlLifeline;perimeter=lifelinePerimeter;whiteSpace=wrap;html=1;container=1;dropTarget=0;collapsible=0;recursiveResize=0;outlineConnect=0;portConstraint=eastwest;newEdgeStyle={&quot;curved&quot;:0,&quot;rounded&quot;:0};" vertex="1" parent="1">
          <mxGeometry x="587" y="40" width="240" height="960" as="geometry" />
        </mxCell>
        <mxCell id="QVQZq-N4ggE52IEKjC-J-49" value="" style="html=1;points=[[0,0,0,0,5],[0,1,0,0,-5],[1,0,0,0,5],[1,1,0,0,-5]];perimeter=orthogonalPerimeter;outlineConnect=0;targetShapes=umlLifeline;portConstraint=eastwest;newEdgeStyle={&quot;curved&quot;:0,&quot;rounded&quot;:0};" vertex="1" parent="QVQZq-N4ggE52IEKjC-J-1">
          <mxGeometry x="115" y="76" width="10" height="64" as="geometry" />
        </mxCell>
        <mxCell id="QVQZq-N4ggE52IEKjC-J-50" value="填写短信验证码进行验证，发送验证请求" style="html=1;verticalAlign=bottom;startArrow=oval;endArrow=block;startSize=8;curved=0;rounded=0;entryX=0;entryY=0;entryDx=0;entryDy=5;entryPerimeter=0;" edge="1" target="QVQZq-N4ggE52IEKjC-J-49" parent="QVQZq-N4ggE52IEKjC-J-1">
          <mxGeometry relative="1" as="geometry">
            <mxPoint x="-206" y="81" as="sourcePoint" />
            <mxPoint x="106" y="81" as="targetPoint" />
          </mxGeometry>
        </mxCell>
        <mxCell id="QVQZq-N4ggE52IEKjC-J-59" value="" style="html=1;points=[[0,0,0,0,5],[0,1,0,0,-5],[1,0,0,0,5],[1,1,0,0,-5]];perimeter=orthogonalPerimeter;outlineConnect=0;targetShapes=umlLifeline;portConstraint=eastwest;newEdgeStyle={&quot;curved&quot;:0,&quot;rounded&quot;:0};" vertex="1" parent="QVQZq-N4ggE52IEKjC-J-1">
          <mxGeometry x="115" y="195" width="10" height="35" as="geometry" />
        </mxCell>
        <mxCell id="QVQZq-N4ggE52IEKjC-J-63" value="" style="html=1;points=[[0,0,0,0,5],[0,1,0,0,-5],[1,0,0,0,5],[1,1,0,0,-5]];perimeter=orthogonalPerimeter;outlineConnect=0;targetShapes=umlLifeline;portConstraint=eastwest;newEdgeStyle={&quot;curved&quot;:0,&quot;rounded&quot;:0};" vertex="1" parent="QVQZq-N4ggE52IEKjC-J-1">
          <mxGeometry x="115" y="256" width="10" height="35" as="geometry" />
        </mxCell>
        <mxCell id="QVQZq-N4ggE52IEKjC-J-66" value="" style="html=1;points=[[0,0,0,0,5],[0,1,0,0,-5],[1,0,0,0,5],[1,1,0,0,-5]];perimeter=orthogonalPerimeter;outlineConnect=0;targetShapes=umlLifeline;portConstraint=eastwest;newEdgeStyle={&quot;curved&quot;:0,&quot;rounded&quot;:0};" vertex="1" parent="QVQZq-N4ggE52IEKjC-J-1">
          <mxGeometry x="115" y="310" width="10" height="35" as="geometry" />
        </mxCell>
        <mxCell id="QVQZq-N4ggE52IEKjC-J-68" value="" style="html=1;points=[[0,0,0,0,5],[0,1,0,0,-5],[1,0,0,0,5],[1,1,0,0,-5]];perimeter=orthogonalPerimeter;outlineConnect=0;targetShapes=umlLifeline;portConstraint=eastwest;newEdgeStyle={&quot;curved&quot;:0,&quot;rounded&quot;:0};" vertex="1" parent="QVQZq-N4ggE52IEKjC-J-1">
          <mxGeometry x="115" y="360" width="10" height="35" as="geometry" />
        </mxCell>
        <mxCell id="QVQZq-N4ggE52IEKjC-J-73" value="" style="html=1;points=[[0,0,0,0,5],[0,1,0,0,-5],[1,0,0,0,5],[1,1,0,0,-5]];perimeter=orthogonalPerimeter;outlineConnect=0;targetShapes=umlLifeline;portConstraint=eastwest;newEdgeStyle={&quot;curved&quot;:0,&quot;rounded&quot;:0};" vertex="1" parent="QVQZq-N4ggE52IEKjC-J-1">
          <mxGeometry x="115" y="430" width="10" height="80" as="geometry" />
        </mxCell>
        <mxCell id="QVQZq-N4ggE52IEKjC-J-6" value="" style="shape=umlLifeline;perimeter=lifelinePerimeter;whiteSpace=wrap;html=1;container=1;dropTarget=0;collapsible=0;recursiveResize=0;outlineConnect=0;portConstraint=eastwest;newEdgeStyle={&quot;curved&quot;:0,&quot;rounded&quot;:0};participant=umlActor;" vertex="1" parent="1">
          <mxGeometry x="361" y="40" width="20" height="960" as="geometry" />
        </mxCell>
        <mxCell id="QVQZq-N4ggE52IEKjC-J-46" value="" style="html=1;points=[[0,0,0,0,5],[0,1,0,0,-5],[1,0,0,0,5],[1,1,0,0,-5]];perimeter=orthogonalPerimeter;outlineConnect=0;targetShapes=umlLifeline;portConstraint=eastwest;newEdgeStyle={&quot;curved&quot;:0,&quot;rounded&quot;:0};" vertex="1" parent="QVQZq-N4ggE52IEKjC-J-6">
          <mxGeometry x="5" y="77" width="10" height="50" as="geometry" />
        </mxCell>
        <mxCell id="QVQZq-N4ggE52IEKjC-J-10" value="module&lt;br&gt;VerifyCodeServer" style="shape=umlLifeline;perimeter=lifelinePerimeter;whiteSpace=wrap;html=1;container=1;dropTarget=0;collapsible=0;recursiveResize=0;outlineConnect=0;portConstraint=eastwest;newEdgeStyle={&quot;curved&quot;:0,&quot;rounded&quot;:0};" vertex="1" parent="1">
          <mxGeometry x="991" y="40" width="200" height="960" as="geometry" />
        </mxCell>
        <mxCell id="QVQZq-N4ggE52IEKjC-J-54" value="" style="html=1;points=[[0,0,0,0,5],[0,1,0,0,-5],[1,0,0,0,5],[1,1,0,0,-5]];perimeter=orthogonalPerimeter;outlineConnect=0;targetShapes=umlLifeline;portConstraint=eastwest;newEdgeStyle={&quot;curved&quot;:0,&quot;rounded&quot;:0};" vertex="1" parent="QVQZq-N4ggE52IEKjC-J-10">
          <mxGeometry x="95" y="133" width="10" height="377" as="geometry" />
        </mxCell>
        <mxCell id="QVQZq-N4ggE52IEKjC-J-21" value="Client" style="text;html=1;strokeColor=none;fillColor=none;align=center;verticalAlign=middle;whiteSpace=wrap;rounded=0;" vertex="1" parent="1">
          <mxGeometry x="410" width="60" height="30" as="geometry" />
        </mxCell>
        <mxCell id="QVQZq-N4ggE52IEKjC-J-53" value="设置业务类型（注册）" style="text;html=1;strokeColor=none;fillColor=none;align=left;verticalAlign=middle;whiteSpace=wrap;rounded=0;" vertex="1" parent="1">
          <mxGeometry x="720" y="119" width="130" height="30" as="geometry" />
        </mxCell>
        <mxCell id="QVQZq-N4ggE52IEKjC-J-55" value="调用验证方法，开始验证" style="html=1;verticalAlign=bottom;startArrow=oval;endArrow=block;startSize=8;curved=0;rounded=0;" edge="1" parent="1">
          <mxGeometry relative="1" as="geometry">
            <mxPoint x="717" y="178" as="sourcePoint" />
            <mxPoint x="1083" y="178" as="targetPoint" />
          </mxGeometry>
        </mxCell>
        <mxCell id="QVQZq-N4ggE52IEKjC-J-58" value="验证码是否存在" style="html=1;align=left;spacingLeft=2;endArrow=block;rounded=0;edgeStyle=orthogonalEdgeStyle;curved=0;rounded=0;" edge="1" parent="1">
          <mxGeometry relative="1" as="geometry">
            <mxPoint x="1100" y="200" as="sourcePoint" />
            <Array as="points">
              <mxPoint x="1130" y="230" />
            </Array>
            <mxPoint x="1105" y="230" as="targetPoint" />
          </mxGeometry>
        </mxCell>
        <mxCell id="QVQZq-N4ggE52IEKjC-J-61" value="给出提示信息验证码不存在" style="html=1;verticalAlign=bottom;endArrow=open;dashed=1;endSize=8;curved=0;rounded=0;" edge="1" parent="1">
          <mxGeometry relative="1" as="geometry">
            <mxPoint x="1085" y="240" as="sourcePoint" />
            <mxPoint x="711.5" y="240" as="targetPoint" />
          </mxGeometry>
        </mxCell>
        <mxCell id="QVQZq-N4ggE52IEKjC-J-62" value="验证码是否过期" style="html=1;align=left;spacingLeft=2;endArrow=block;rounded=0;edgeStyle=orthogonalEdgeStyle;curved=0;rounded=0;" edge="1" parent="1">
          <mxGeometry relative="1" as="geometry">
            <mxPoint x="1105" y="255" as="sourcePoint" />
            <Array as="points">
              <mxPoint x="1135" y="285" />
            </Array>
            <mxPoint x="1110" y="285" as="targetPoint" />
          </mxGeometry>
        </mxCell>
        <mxCell id="QVQZq-N4ggE52IEKjC-J-64" value="验证码已过期" style="html=1;verticalAlign=bottom;endArrow=open;dashed=1;endSize=8;curved=0;rounded=0;" edge="1" parent="1">
          <mxGeometry relative="1" as="geometry">
            <mxPoint x="1085" y="300" as="sourcePoint" />
            <mxPoint x="711.5" y="300" as="targetPoint" />
          </mxGeometry>
        </mxCell>
        <mxCell id="QVQZq-N4ggE52IEKjC-J-65" value="验证码是否输入正确，错误次数小于2" style="html=1;align=left;spacingLeft=2;endArrow=block;rounded=0;edgeStyle=orthogonalEdgeStyle;curved=0;rounded=0;" edge="1" parent="1">
          <mxGeometry relative="1" as="geometry">
            <mxPoint x="1105" y="317" as="sourcePoint" />
            <Array as="points">
              <mxPoint x="1135" y="347" />
            </Array>
            <mxPoint x="1105" y="347" as="targetPoint" />
          </mxGeometry>
        </mxCell>
        <mxCell id="QVQZq-N4ggE52IEKjC-J-67" value="验证失败次数+1，提示验证错误" style="html=1;verticalAlign=bottom;endArrow=open;dashed=1;endSize=8;curved=0;rounded=0;" edge="1" parent="1">
          <mxGeometry relative="1" as="geometry">
            <mxPoint x="1085.5" y="360" as="sourcePoint" />
            <mxPoint x="712" y="360" as="targetPoint" />
          </mxGeometry>
        </mxCell>
        <mxCell id="QVQZq-N4ggE52IEKjC-J-69" value="验证码是否输入正确，错误次数大于等于2" style="html=1;align=left;spacingLeft=2;endArrow=block;rounded=0;edgeStyle=orthogonalEdgeStyle;curved=0;rounded=0;" edge="1" parent="1">
          <mxGeometry relative="1" as="geometry">
            <mxPoint x="1106" y="366" as="sourcePoint" />
            <Array as="points">
              <mxPoint x="1136" y="396" />
            </Array>
            <mxPoint x="1106" y="396" as="targetPoint" />
          </mxGeometry>
        </mxCell>
        <mxCell id="QVQZq-N4ggE52IEKjC-J-70" value="提示验证失败" style="html=1;verticalAlign=bottom;endArrow=open;dashed=1;endSize=8;curved=0;rounded=0;" edge="1" parent="1">
          <mxGeometry relative="1" as="geometry">
            <mxPoint x="1085.5" y="414" as="sourcePoint" />
            <mxPoint x="712" y="414" as="targetPoint" />
          </mxGeometry>
        </mxCell>
        <mxCell id="QVQZq-N4ggE52IEKjC-J-74" value="验证成功" style="html=1;verticalAlign=bottom;endArrow=block;curved=0;rounded=0;entryX=1;entryY=0;entryDx=0;entryDy=5;entryPerimeter=0;" edge="1" target="QVQZq-N4ggE52IEKjC-J-73" parent="1">
          <mxGeometry relative="1" as="geometry">
            <mxPoint x="1085" y="477" as="sourcePoint" />
            <mxPoint x="717" y="477" as="targetPoint" />
          </mxGeometry>
        </mxCell>
        <mxCell id="QVQZq-N4ggE52IEKjC-J-77" value="增加短信验证码通过标记" style="text;html=1;strokeColor=none;fillColor=none;align=left;verticalAlign=middle;whiteSpace=wrap;rounded=0;" vertex="1" parent="1">
          <mxGeometry x="720" y="490" width="130" height="30" as="geometry" />
        </mxCell>
      </root>
    </mxGraphModel>
  </diagram>
</mxfile>
